<svg width="145" height="89" viewBox="0 0 145 89" fill="none" xmlns="http://www.w3.org/2000/svg">
<path d="M140.445 87.9513C140.463 87.9209 140.451 87.5741 140.421 87.1787C140.384 86.7832 140.366 86.4547 140.372 86.4486C140.384 86.4425 140.603 86.406 140.865 86.3634C142.307 86.1566 143.444 85.1649 143.791 83.8204C143.968 83.145 143.949 82.7374 143.487 77.919C143.189 74.7736 143.122 74.3842 142.684 73.5507C142.404 73.0153 141.747 72.3461 141.242 72.0784C140.725 71.8107 140.104 71.6343 139.52 71.5917C139.247 71.5734 139.021 71.5369 139.015 71.5187C139.015 71.5004 138.364 64.3457 137.574 55.6153L136.126 39.7545L136.466 39.6572C137.427 39.3895 137.896 38.5986 137.963 37.1385C137.993 36.6092 137.951 35.9703 137.811 34.5224C137.707 33.4699 137.379 29.9655 137.075 26.735C136.241 17.8403 135.712 12.5594 135.432 10.2841C135.322 9.43839 135.274 9.21937 135 8.4893C133.424 4.27315 130.632 1.87608 126.543 1.21294C125.789 1.09126 124.219 0.999998 122.899 0.999998C121.719 0.999998 120.283 1.04867 115.264 1.27377C113.39 1.35895 110.238 1.49279 108.267 1.57797C98.9893 1.97342 97.8638 2.0951 96.7018 2.80083C96.5071 2.92251 96.2576 3.07461 96.1603 3.13545C95.6432 3.44573 96.2394 3.43356 82.5019 3.43356C74.2156 3.43356 69.458 3.40922 68.9044 3.36664C66.7628 3.20845 65.7225 2.93468 64.3779 2.18636C63.5383 1.7179 62.8448 1.45629 62.0599 1.30419C60.612 1.02433 61.1534 1.03041 40.2491 1.03041C21.5654 1.03041 20.4338 1.03649 19.7159 1.13992C17.4101 1.46845 15.7796 2.05251 14.2039 3.09894C13.4799 3.58565 12.4639 4.50432 11.9102 5.17964C10.809 6.53635 9.92686 8.36153 9.43407 10.2962C9.16029 11.4035 9.08729 11.951 8.82568 15.0538C8.56407 18.1505 8.07127 23.5105 7.33511 31.3283C7.08568 34.0052 6.87883 36.4266 6.87883 36.7126C6.88491 38.0875 7.40812 39.134 8.31463 39.5781C8.62491 39.7302 8.70399 39.8032 8.70399 39.9066C8.70399 39.9857 8.05911 47.1039 7.27427 55.7248C6.48945 64.3457 5.84455 71.4274 5.84455 71.4578C5.84455 71.4882 5.61945 71.5126 5.33959 71.5126C4.3175 71.5126 3.58743 71.8289 2.79652 72.6077C1.97518 73.4168 1.73791 74.007 1.5554 75.6192C1.31812 77.7973 0.971337 82.2689 1.00176 82.7374C1.15385 84.7512 2.32197 86.114 4.09847 86.3452C4.29316 86.3695 4.45133 86.4182 4.45742 86.4486C4.46351 86.5642 4.37833 87.6045 4.34791 87.8053L4.31141 88L20.1357 88L35.9599 88L35.9599 82.8591L35.9599 77.7182L40.0362 77.7182L44.1124 77.7182L44.1124 78.2049L44.1124 78.6916L50.8351 78.6916L57.5578 78.6916L57.5578 78.1745L57.5578 77.6573L69.9386 77.6573L82.3194 77.6573L82.3194 78.1745L82.3194 78.6916L91.5061 78.6916L100.693 78.6916L100.693 78.2049L100.693 77.7182L104.799 77.7182L108.906 77.7182L108.906 82.8591L108.906 88L124.657 88C133.327 88 140.427 87.9757 140.445 87.9513ZM109.149 82.5853L109.149 77.414L104.799 77.414L100.449 77.414L100.449 77.9311L100.449 78.4482L91.5061 78.4482L82.5627 78.4482L82.5627 77.9311L82.5627 77.414L69.9082 77.414L57.2536 77.414L57.2536 77.9311L57.2536 78.4482L50.8351 78.4482L44.4227 78.4482L44.4044 77.9494L44.3862 77.4444L40.0483 77.4261L35.7166 77.414L35.7166 82.5853L35.7166 87.7566L20.1661 87.7566L4.60952 87.7566L4.64602 87.3794C4.67036 87.1665 4.70686 86.7954 4.72511 86.5581L4.76771 86.114L4.46958 86.114C4.29923 86.114 4.00112 86.0714 3.80643 86.0227C2.19421 85.609 1.28162 84.3192 1.26336 82.4332C1.25729 81.764 1.60406 77.5174 1.82917 75.5523C1.99952 74.0435 2.25504 73.4412 3.05204 72.6989C3.85511 71.9506 4.91979 71.6099 5.80197 71.8107C5.96623 71.8533 6.03924 71.8472 6.05749 71.7985C6.06967 71.7559 6.72672 64.6073 7.51763 55.9073C8.30246 47.2073 8.9656 39.9614 8.98385 39.8093L9.02037 39.5294L8.78917 39.4868C8.08952 39.3591 7.51764 38.7142 7.26211 37.7773C7.06743 37.0411 7.08567 36.6517 7.69407 30.2332C8.41197 22.6222 8.88652 17.4083 9.12988 14.488C9.36714 11.5921 9.48274 10.8985 9.99379 9.30453C10.3101 8.32502 11.1071 6.71279 11.6547 5.95838C13.486 3.4153 16.0595 1.93691 19.5638 1.4137C20.014 1.34677 23.8043 1.3346 40.4012 1.33461C59.383 1.33461 60.7337 1.34069 61.3846 1.43803C62.5345 1.61447 62.9664 1.76048 64.2867 2.42971C65.5947 3.09286 66.0388 3.24496 67.2191 3.43964C68.661 3.67692 69.2876 3.683 82.6844 3.66475L95.6736 3.6465L96.069 3.45181C96.2881 3.3423 96.6409 3.14153 96.8599 3.00769C97.9003 2.35671 99.2144 2.22286 108.632 1.82133C110.604 1.73615 113.743 1.60231 115.598 1.51713C122.303 1.21902 123.781 1.19468 125.637 1.37112C130.169 1.78482 133.272 4.30965 134.848 8.84217C135.012 9.31671 135.097 9.71217 135.189 10.424C135.456 12.5655 136.016 18.1992 136.892 27.5563C137.16 30.434 137.452 33.5003 137.543 34.3703C137.732 36.2563 137.756 37.4731 137.604 38.051C137.391 38.842 136.929 39.3165 136.217 39.4625C136.022 39.499 135.858 39.5599 135.858 39.5842C135.858 39.6755 138.717 71.178 138.754 71.4883L138.79 71.7985L139.32 71.835C141.224 71.9567 142.465 72.9971 142.885 74.8283C142.933 75.0413 143.061 76.0877 143.159 77.1524C143.262 78.2171 143.396 79.665 143.463 80.3647C143.657 82.3785 143.682 83.212 143.56 83.6804C143.414 84.2523 143.189 84.6721 142.824 85.0676C142.228 85.7124 141.358 86.1079 140.549 86.114L140.098 86.114L140.141 86.9049L140.184 87.6958L133.017 87.714C129.074 87.7201 122.09 87.7323 117.497 87.7445L109.149 87.7566L109.149 82.5853Z" fill="#9DAEBB" stroke="#9DAEBB"/>
</svg>
