<svg width="145" height="89" viewBox="0 0 145 89" fill="none" xmlns="http://www.w3.org/2000/svg">
<path d="M4.44941 1.04867C4.43116 1.07909 4.44333 1.42588 4.47375 1.82133C4.51025 2.21679 4.5285 2.54532 4.52242 2.5514C4.51025 2.55748 4.29123 2.59399 4.02962 2.63658C2.58773 2.84343 1.45004 3.83511 1.10326 5.17965C0.926824 5.85497 0.945076 6.26259 1.40745 11.0811C1.70557 14.2264 1.77249 14.6158 2.21053 15.4493C2.49039 15.9847 3.14745 16.6539 3.65242 16.9216C4.16955 17.1893 4.79011 17.3657 5.37417 17.4083C5.64794 17.4266 5.87305 17.4631 5.87913 17.4813C5.87913 17.4996 6.53011 24.6543 7.32102 33.3847L8.76899 49.2455L8.42829 49.3428C7.46703 49.6105 6.99857 50.4014 6.93165 51.8615C6.90123 52.3908 6.94382 53.0297 7.08375 54.4776C7.18717 55.5301 7.5157 59.0345 7.8199 62.265C8.6534 71.1597 9.1827 76.4406 9.46256 78.7159C9.57207 79.5616 9.62074 79.7806 9.89452 80.5107C11.4703 84.7269 14.2628 87.1239 18.3512 87.7871C19.1056 87.9087 20.6752 88 21.9954 88C23.1757 88 24.6115 87.9513 29.6307 87.7262C31.5046 87.641 34.6561 87.5072 36.6272 87.422C45.9052 87.0266 47.0307 86.9049 48.1928 86.1992C48.3875 86.0775 48.6369 85.9254 48.7342 85.8645C49.2514 85.5543 48.6551 85.5664 62.3926 85.5664C70.6789 85.5664 75.4365 85.5908 75.9902 85.6334C78.1317 85.7915 79.1721 86.0653 80.5166 86.8136C81.3562 87.2821 82.0498 87.5437 82.8346 87.6958C84.2826 87.9757 83.7411 87.9696 104.645 87.9696C123.329 87.9696 124.461 87.9635 125.179 87.8601C127.484 87.5315 129.115 86.9475 130.691 85.901C131.415 85.4143 132.431 84.4957 132.984 83.8203C134.085 82.4636 134.968 80.6385 135.46 78.7038C135.734 77.5965 135.807 77.049 136.069 73.9462C136.33 70.8494 136.823 65.4895 137.559 57.6717C137.809 54.9948 138.016 52.5734 138.016 52.2874C138.01 50.9124 137.486 49.866 136.58 49.4219C136.27 49.2698 136.191 49.1968 136.191 49.0934C136.191 49.0143 136.835 41.8961 137.62 33.2752C138.405 24.6543 139.05 17.5726 139.05 17.5422C139.05 17.5117 139.275 17.4874 139.555 17.4874C140.577 17.4874 141.307 17.1711 142.098 16.3923C142.919 15.5831 143.157 14.993 143.339 13.3808C143.576 11.2027 143.923 6.73105 143.893 6.26259C143.741 4.24881 142.573 2.88602 140.796 2.65483C140.601 2.63049 140.443 2.58182 140.437 2.5514C140.431 2.43581 140.516 1.39546 140.547 1.19469L140.583 1H124.759H108.935V6.14091V11.2818H104.858H100.782V10.7951V10.3084H94.0594H87.3367V10.8255V11.3427H74.9559H62.5751V10.8255V10.3084H53.3884H44.2017V10.7951V11.2818H40.0951H35.9884V6.14091V1H20.2372C11.5676 1 4.46766 1.02434 4.44941 1.04867ZM35.7451 6.41469V11.586H40.0951H44.4451V11.0689V10.5518H53.3884H62.3318V11.0689V11.586H74.9863H87.6409V11.0689V10.5518H94.0594H100.472L100.49 11.0506L100.508 11.5556L104.846 11.5738L109.178 11.586V6.41469V1.24336H124.728H140.285L140.249 1.62056C140.224 1.8335 140.188 2.20462 140.169 2.44189L140.127 2.88602H140.425C140.595 2.88602 140.893 2.9286 141.088 2.97727C142.7 3.39098 143.613 4.68077 143.631 6.56679C143.637 7.23602 143.29 11.4826 143.065 13.4477C142.895 14.9565 142.639 15.5588 141.842 16.3011C141.039 17.0494 139.975 17.3901 139.093 17.1893C138.928 17.1467 138.855 17.1528 138.837 17.2015C138.825 17.2441 138.168 24.3927 137.377 33.0927C136.592 41.7927 135.929 49.0386 135.911 49.1907L135.874 49.4706L136.105 49.5131C136.805 49.6409 137.377 50.2858 137.632 51.2227C137.827 51.9589 137.809 52.3483 137.2 58.7668C136.483 66.3778 136.008 71.5917 135.765 74.512C135.527 77.4079 135.412 78.1015 134.901 79.6955C134.584 80.675 133.787 82.2872 133.24 83.0416C131.409 85.5847 128.835 87.0631 125.331 87.5863C124.881 87.6532 121.09 87.6654 104.493 87.6654C85.5115 87.6654 84.1609 87.6593 83.5099 87.562C82.36 87.3855 81.9281 87.2395 80.6079 86.5703C79.2998 85.9071 78.8557 85.755 77.6754 85.5603C76.2335 85.3231 75.6069 85.317 62.2101 85.3352L49.2209 85.3535L48.8255 85.5482C48.6065 85.6577 48.2536 85.8585 48.0346 85.9923C46.9942 86.6433 45.6801 86.7771 36.2622 87.1787C34.291 87.2638 31.1517 87.3977 29.2961 87.4829C22.5916 87.781 21.1133 87.8053 19.2577 87.6289C14.7251 87.2152 11.6223 84.6903 10.0466 80.1578C9.88235 79.6833 9.79717 79.2878 9.70591 78.576C9.43822 76.4345 8.8785 70.8008 8.00242 61.4437C7.73473 58.566 7.4427 55.4997 7.35144 54.6297C7.16284 52.7437 7.1385 51.5269 7.2906 50.949C7.50354 50.158 7.96591 49.6835 8.67773 49.5375C8.87242 49.501 9.03668 49.4401 9.03668 49.4158C9.03668 49.3245 6.17724 17.822 6.14074 17.5117L6.10424 17.2015L5.57494 17.165C3.67067 17.0433 2.42955 16.0029 2.00976 14.1717C1.96109 13.9587 1.83333 12.9123 1.73598 11.8476C1.63256 10.7829 1.49871 9.33497 1.43179 8.63532C1.2371 6.62154 1.21277 5.78804 1.33445 5.31958C1.48046 4.74769 1.70557 4.3279 2.0706 3.93245C2.66682 3.28755 3.53682 2.8921 4.34598 2.88602H4.79619L4.75361 2.09511L4.71102 1.3042L11.8779 1.28595C15.8202 1.27986 22.8046 1.26769 27.3979 1.25553L35.7451 1.24336V6.41469Z" fill="#9DAEBB" stroke="#9DAEBB"/>
</svg>
