<svg width="122" height="89" viewBox="0 0 122 89" fill="none" xmlns="http://www.w3.org/2000/svg">
<path d="M102.767 0.628095C102.708 0.638745 102.528 0.67602 102.369 0.707968C102.21 0.739916 101.341 1.01147 100.435 1.31498C99.5336 1.61849 92.2933 3.97736 84.3481 6.55986C76.4028 9.14236 69.8834 11.2723 69.8622 11.2989C69.8357 11.3202 70.2014 12.5342 70.6625 13.9932L71.5106 16.6502L62.7332 16.6769L53.9505 16.7035L53.9346 17.433L53.9187 18.1678H52.0212H50.1237L50.0919 17.8057C50.0071 16.9058 49.97 17.0389 51.0353 14.121C51.576 12.646 52.0106 11.4054 52.0053 11.3681C51.9894 11.2829 52.5883 11.4799 40.0371 7.38519C34.689 5.63867 28.0795 3.47683 25.3551 2.58227C22.6307 1.68772 20.235 0.910309 20.0283 0.851736C19.371 0.67602 18.7562 0.62809 18.2474 0.718611C17.5954 0.83043 17.2403 1.0168 16.7633 1.49603C16.318 1.94863 16.0212 2.45981 15.7986 3.18397C15.7244 3.41826 15.5071 4.39269 15.311 5.34049C14.8127 7.77922 12.4594 19.2221 11.8657 22.0815C11.2668 24.9941 11.288 24.8397 11.3622 25.255C11.4841 25.9206 11.8604 26.3998 12.5442 26.7406C12.7721 26.8578 13.0106 26.9536 13.0636 26.9536C13.1219 26.9536 13.1643 26.9696 13.1643 26.9856C13.1643 27.0015 11.0442 33.5936 8.4523 41.6392C2.19788 61.0426 2.17668 61.1118 1.87456 62.1661C1.73145 62.672 1.47703 63.6198 1.30742 64.28L1 65.4781L1.0053 67.182C1.0053 69.0084 1.0636 69.7698 1.32332 71.2022C1.86396 74.1574 2.99823 76.8411 4.65194 79.0509C7.0106 82.2031 10.4134 84.4608 14.7597 85.7547C21.4753 87.7621 28.53 87.842 35.8763 85.9996C36.9841 85.7228 37.3127 85.6269 39.5866 84.94C41.8922 84.2372 43.4876 83.7846 45.2845 83.316C46.0265 83.119 46.6943 82.9432 46.7686 82.9219C46.8852 82.8847 46.9011 82.8474 46.917 82.6078L46.9329 82.3309H57.083H67.2279V82.5652C67.2279 82.6983 67.2491 82.8155 67.2703 82.8314C67.2968 82.8474 68.2774 82.9912 69.4594 83.1562C74.3039 83.8272 75.0989 83.9709 77.2191 84.5407C78.1519 84.7909 79.5247 85.153 80.2721 85.3394C92.818 88.481 102.963 88.3479 109.705 84.956C110.887 84.3596 112.429 83.4012 113.526 82.5705C117.375 79.6632 119.802 76.0211 120.677 71.8518C120.963 70.494 121 70.0733 121 68.2203C121 66.4099 120.963 65.9999 120.703 64.6528C120.502 63.5931 120.279 62.8317 119.405 60.164C118.779 58.2578 109.117 28.2209 108.761 27.0761C108.73 26.9802 108.751 26.9589 108.899 26.927C109.265 26.8471 109.837 26.533 110.097 26.2774C110.622 25.7502 110.67 25.1805 110.33 23.599C110.214 23.0559 110.065 22.3477 110.002 22.0282C109.191 17.8909 106.307 3.75904 106.207 3.41826C105.836 2.18824 105.205 1.29369 104.431 0.899655C103.97 0.670691 103.201 0.542899 102.767 0.628095ZM103.7 0.883678C104.781 1.11797 105.544 1.97526 106 3.48749C106.095 3.81762 108.989 18.0134 109.79 22.0815C109.853 22.401 110.002 23.1091 110.118 23.6523C110.251 24.2912 110.33 24.7811 110.33 25.042C110.336 25.8887 109.928 26.3626 108.915 26.6874C108.714 26.7513 108.528 26.8258 108.502 26.8418C108.47 26.8791 117.136 53.9394 119.171 60.1534C120.322 63.6677 120.602 64.722 120.788 66.3354C121.233 70.1479 120.438 73.6143 118.355 76.9689C116.108 80.5897 111.82 84.0561 107.564 85.7015C103.313 87.3415 97.5936 87.7888 90.7615 87.0167C86.6325 86.5481 82.1484 85.6429 76.8746 84.2212C75.1943 83.7686 74.2456 83.6035 69.9046 82.9965C68.7385 82.8368 67.7049 82.693 67.6148 82.677C67.4452 82.6451 67.4399 82.6397 67.4399 82.3895C67.4399 82.2031 67.4187 82.1179 67.3551 82.0966C67.2491 82.054 46.9064 82.054 46.8004 82.0966C46.7368 82.1232 46.7155 82.2031 46.7155 82.4161C46.7155 82.6025 46.689 82.7143 46.6519 82.7303C46.6148 82.7409 45.9735 82.9113 45.2315 83.103C43.4717 83.5609 41.8286 84.0295 39.7986 84.6472C37.6307 85.3021 36.841 85.5311 35.8233 85.7867C29.7544 87.3042 23.9611 87.5065 18.2792 86.399C13.0689 85.3767 9.40106 83.6461 6.54417 80.8666C3.9364 78.3214 2.24558 75.0467 1.53534 71.1489C1.28092 69.7326 1.21731 68.9552 1.21731 67.182V65.5313L1.51943 64.3333C2.15018 61.8733 1.60954 63.5825 8.69081 41.6073C11.2986 33.5137 13.4187 26.8737 13.4028 26.8471C13.3869 26.8205 13.2968 26.7832 13.2014 26.7672C12.8781 26.6927 12.3799 26.4318 12.1307 26.2028C11.7279 25.8301 11.6113 25.5745 11.5848 25.042C11.5689 24.6267 11.6113 24.3658 12.0724 22.1613C12.6025 19.6001 14.9293 8.32234 15.523 5.38841C15.9841 3.1254 16.159 2.59292 16.6784 1.90071C16.9488 1.53862 17.2562 1.29901 17.7067 1.09135C17.9611 0.974204 18.1095 0.947574 18.5919 0.926275C18.9258 0.910301 19.3286 0.926287 19.5459 0.968885C19.7527 1.00616 20.6749 1.28304 21.5919 1.58122C23.6325 2.25746 36.9682 6.61843 45.4435 9.38197C48.8675 10.5002 51.6926 11.4373 51.7191 11.4586C51.7403 11.4799 51.3322 12.6833 50.8021 14.1316L49.8428 16.7567V17.4862C49.8428 17.8856 49.8587 18.2477 49.8746 18.2956C49.9011 18.3701 50.1449 18.3808 52.0212 18.3808H54.136V17.6353V16.8898H62.9293C68.0442 16.8898 71.7385 16.8686 71.7544 16.8419C71.7703 16.8153 71.4046 15.5906 70.9329 14.121C70.4664 12.6514 70.0901 11.4426 70.1007 11.432C70.1113 11.4267 76.5459 9.32872 84.4011 6.77285C92.2562 4.2223 99.2473 1.9433 99.9311 1.70901C102.661 0.787832 102.952 0.723935 103.7 0.883678Z" fill="#9DAEBB" stroke="#9DAEBB"/>
</svg>
