<svg width="130" height="95" viewBox="0 0 130 95" fill="none" xmlns="http://www.w3.org/2000/svg">
<path d="M20.4487 93.7717C20.5109 93.7603 20.7032 93.7206 20.8728 93.6865C21.0424 93.6524 21.9696 93.3628 22.9364 93.039C23.8975 92.7153 31.6205 90.1991 40.0954 87.4445C48.5703 84.6898 55.5244 82.4179 55.547 82.3895C55.5753 82.3668 55.1851 81.0718 54.6933 79.5156L53.7887 76.6814L63.1512 76.653L72.5194 76.6246L72.5364 75.8465L72.5533 75.0627L74.5774 75.0627L76.6014 75.0627L76.6353 75.4489C76.7258 76.4088 76.7654 76.2668 75.629 79.3793C75.0523 80.9526 74.5887 82.2759 74.5943 82.3157C74.6113 82.4066 73.9724 82.1964 87.3604 86.5641C93.065 88.4271 100.115 90.733 103.021 91.6872C105.927 92.6414 108.483 93.4707 108.703 93.5331C109.404 93.7206 110.06 93.7717 110.603 93.6751C111.298 93.5559 111.677 93.3571 112.186 92.8459C112.661 92.3631 112.977 91.8179 113.215 91.0454C113.294 90.7955 113.526 89.7561 113.735 88.7451C114.266 86.1438 116.777 73.9381 117.41 70.8881C118.049 67.7813 118.026 67.946 117.947 67.503C117.817 66.793 117.416 66.2818 116.686 65.9183C116.443 65.7934 116.189 65.6911 116.132 65.6911C116.07 65.6911 116.025 65.6741 116.025 65.6571C116.025 65.64 118.286 58.6085 121.051 50.0265C127.722 29.3296 127.745 29.2557 128.067 28.1311C128.22 27.5916 128.491 26.5806 128.672 25.8763L129 24.5984L128.994 22.7808C128.994 20.8327 128.932 20.0205 128.655 18.4927C128.078 15.3404 126.869 12.4778 125.105 10.1207C122.589 6.75835 118.959 4.35015 114.323 2.96998C107.16 0.82872 99.6346 0.743523 91.7986 2.70871C90.617 3.00405 90.2664 3.10629 87.841 3.83897C85.3816 4.58869 83.6799 5.07147 81.7633 5.57129C80.9717 5.78144 80.2594 5.96887 80.1802 5.99159C80.0558 6.03134 80.0389 6.0711 80.0219 6.32669L80.0049 6.62203L69.1781 6.62203L58.3569 6.62203L58.3569 6.37212C58.3569 6.23013 58.3343 6.10518 58.3117 6.08814C58.2834 6.0711 57.2375 5.91775 55.9767 5.74167C50.8092 5.02603 49.9611 4.87268 47.6996 4.26495C46.7046 3.998 45.2403 3.61178 44.4431 3.41299C31.0608 0.0619504 20.2396 0.203943 13.0481 3.82193C11.7873 4.45805 10.1421 5.4804 8.97173 6.36644C4.86714 9.46757 2.27774 13.3525 1.34488 17.7997C1.03958 19.2481 0.999998 19.6967 0.999997 21.6733C0.999997 23.6044 1.03957 24.0417 1.3166 25.4787C1.53144 26.609 1.76889 27.4212 2.70175 30.2667C3.36889 32.3001 13.6756 64.3394 14.0544 65.5605C14.0883 65.6627 14.0657 65.6855 13.9074 65.7195C13.5173 65.8047 12.9067 66.1398 12.6297 66.4125C12.07 66.9748 12.0191 67.5825 12.3809 69.2694C12.5053 69.8487 12.6636 70.6041 12.7314 70.9449C13.5964 75.358 16.6721 90.432 16.7795 90.7955C17.1753 92.1075 17.848 93.0617 18.6735 93.482C19.1654 93.7263 19.9851 93.8626 20.4487 93.7717ZM19.4537 93.4991C18.3003 93.2492 17.4862 92.3347 17 90.7217C16.8982 90.3695 13.8113 75.2274 12.9576 70.8881C12.8897 70.5473 12.7314 69.7919 12.6071 69.2126C12.4657 68.531 12.3809 68.0085 12.3809 67.7302C12.3753 66.8271 12.8106 66.3216 13.8905 65.9751C14.1053 65.907 14.3032 65.8275 14.3314 65.8104C14.3654 65.7707 5.12155 36.9063 2.95053 30.2781C1.72367 26.5295 1.42402 25.4049 1.22614 23.6839C0.75123 19.6172 1.59928 15.9197 3.82119 12.3415C6.21836 8.4793 10.7922 4.7818 15.3322 3.02676C19.8664 1.27741 25.9668 0.800314 33.2544 1.62387C37.6587 2.12369 42.4417 3.08924 48.0671 4.60573C49.8594 5.08851 50.8714 5.26458 55.5018 5.91207C56.7456 6.08246 57.8481 6.23581 57.9442 6.25285C58.1251 6.28693 58.1307 6.29261 58.1307 6.55956C58.1307 6.75835 58.1534 6.84922 58.2212 6.87194C58.3343 6.91738 80.0332 6.91738 80.1463 6.87194C80.2141 6.84354 80.2367 6.75835 80.2367 6.53116C80.2367 6.33237 80.265 6.21309 80.3046 6.19606C80.3442 6.1847 81.0283 6.00294 81.8198 5.79847C83.6968 5.31002 85.4495 4.8102 87.6148 4.15136C89.9272 3.45275 90.7696 3.20852 91.8551 2.9359C98.3286 1.31718 104.508 1.10135 110.569 2.28273C116.127 3.37324 120.039 5.21915 123.086 8.18396C125.868 10.8989 127.671 14.3919 128.429 18.5495C128.7 20.0603 128.768 20.8895 128.768 22.7808L128.768 24.5416L128.446 25.8195C127.773 28.4435 128.35 26.6203 120.796 50.0606C118.015 58.6937 115.753 65.7763 115.77 65.8047C115.787 65.8331 115.883 65.8729 115.985 65.8899C116.33 65.9695 116.861 66.2478 117.127 66.492C117.557 66.8896 117.681 67.1622 117.71 67.7302C117.726 68.1732 117.681 68.4515 117.189 70.8029C116.624 73.5349 114.142 85.5645 113.509 88.694C113.017 91.1079 112.83 91.6759 112.276 92.4142C111.988 92.8005 111.66 93.0561 111.179 93.2776C110.908 93.4025 110.75 93.4309 110.235 93.4536C109.879 93.4707 109.449 93.4536 109.218 93.4082C108.997 93.3684 108.013 93.0731 107.035 92.755C104.859 92.0337 90.6339 87.382 81.5936 84.4342C77.9413 83.2415 74.9279 82.2419 74.8996 82.2191C74.877 82.1964 75.3124 80.9128 75.8777 79.3679L76.901 76.5678L76.901 75.7897C76.901 75.3637 76.8841 74.9775 76.8671 74.9264C76.8389 74.8469 76.5788 74.8355 74.5774 74.8355L72.3215 74.8355L72.3215 75.6307L72.3215 76.4258L62.942 76.4258C57.4862 76.4258 53.5456 76.4485 53.5286 76.4769C53.5117 76.5053 53.9018 77.8117 54.4049 79.3793C54.9025 80.9469 55.3039 82.2362 55.2926 82.2475C55.2813 82.2532 48.4177 84.491 40.0389 87.2173C31.6601 89.9379 24.2028 92.3688 23.4735 92.6187C20.5618 93.6013 20.2509 93.6695 19.4537 93.4991Z" fill="#9DAEBB" stroke="#9DAEBB"/>
</svg>
