<svg width="142" height="89" viewBox="0 0 142 89" fill="none" xmlns="http://www.w3.org/2000/svg">
<path d="M108.032 5.58266V10.1653H70.991H33.9499V5.60438V1.04344H19.2725H4.595L4.59934 1.16072C4.59934 1.23022 4.61671 1.43872 4.63842 1.62985C4.65579 1.82097 4.66882 1.98169 4.66013 1.99038C4.65579 1.99906 4.33879 2.02078 3.961 2.0425C2.88407 2.10331 2.26744 2.30747 1.76806 2.76791C1.28171 3.224 1.04287 3.87556 1.00379 4.88766C0.986422 5.41325 1.02116 5.93884 1.26868 8.68844C1.42935 10.4433 1.59002 12.0375 1.62476 12.2286C1.86794 13.4492 2.52365 14.2354 3.51807 14.496C3.73085 14.5482 4.01311 14.5655 4.80343 14.5699C5.35492 14.5699 5.81088 14.5872 5.81088 14.6046C5.81088 14.6698 8.80717 47.3695 8.83322 47.591L8.85928 47.8169L8.41201 47.8343C8.0429 47.8473 7.91697 47.869 7.72156 47.9603C7.10059 48.247 6.79227 48.7943 6.73582 49.6934C6.70977 50.1452 6.70108 50.0062 7.18309 55.4272C8.37292 68.8667 8.98955 75.517 9.08943 76.1034C9.46722 78.2709 10.1446 79.9389 11.2346 81.4028C11.5559 81.8372 12.3853 82.6885 12.8456 83.0534C14.4046 84.2957 16.4542 85.0819 18.9251 85.3773C19.7154 85.4772 21.6261 85.5076 22.855 85.4468C25.4127 85.3208 29.6118 85.1471 39.226 84.7692C42.5697 84.6389 45.414 84.5173 45.5443 84.5042C46.2 84.4304 46.8817 84.2132 47.3638 83.9265C47.5201 83.8353 47.8544 83.579 48.1063 83.3618C48.3582 83.1446 48.6491 82.9231 48.7577 82.871L48.9531 82.7711L61.5679 82.758C74.63 82.745 74.6039 82.745 76.2627 82.9274C76.6926 82.9709 77.3744 83.0404 77.7826 83.0751C79.9451 83.2706 82.0295 83.6181 84.0618 84.1176C85.3167 84.4304 86.6021 84.817 88.9079 85.5728C92.3081 86.6935 93.6195 87.067 95.3565 87.4145C98.5873 88.0661 102.122 88.1703 106.208 87.7447C112.11 87.1235 117.551 85.4816 122.258 82.897C126.188 80.7425 129.54 77.9017 131.62 74.974C132.958 73.0888 134.282 70.2524 134.821 68.1283C135.172 66.7513 135.246 65.8522 135.172 63.9409C135.107 62.3859 135.133 56.9822 135.22 53.1033C135.294 49.789 135.294 49.5023 135.203 49.1722C135.09 48.7465 134.921 48.4511 134.664 48.2165C134.369 47.9472 134.048 47.8213 133.561 47.7952L133.184 47.7691L133.205 47.6128C133.218 47.4694 136.084 14.6785 136.084 14.6307C136.084 14.6177 136.488 14.5959 136.988 14.5829C138.008 14.5568 138.386 14.4873 138.95 14.218C139.528 13.9444 139.992 13.384 140.223 12.6847C140.37 12.246 140.435 11.6987 140.713 8.66672C141.022 5.28728 141.056 4.60097 140.935 4.1275C140.8 3.61928 140.548 3.17188 140.214 2.85478C139.641 2.31616 138.924 2.05553 137.895 2.0121L137.296 1.98603L137.318 1.82966C137.331 1.74278 137.352 1.52125 137.365 1.33447L137.396 1H122.714H108.032V5.58266ZM137.148 1.68197L137.118 2.19453L137.743 2.19888C138.824 2.20322 139.541 2.45081 140.105 3.0155C140.618 3.53241 140.813 4.06669 140.818 4.95716C140.818 5.50881 140.279 11.5466 140.184 12.0679C139.867 13.801 138.816 14.4787 136.558 14.4135C136.002 14.4005 135.911 14.4048 135.911 14.4613C135.911 14.496 135.255 22.0151 134.456 31.1673C133.657 40.3196 133.001 47.843 133.001 47.8908C133.001 47.9733 133.032 47.9776 133.448 47.9776C133.839 47.982 133.922 47.995 134.161 48.1036C134.604 48.3078 134.873 48.6553 135.02 49.22C135.107 49.5414 135.112 49.9845 135.042 52.5386C134.973 55.223 134.938 63.0331 134.99 64.1798C135.099 66.4473 134.803 68.0762 133.87 70.3914C133.609 71.0386 132.832 72.6414 132.437 73.3451C130.765 76.3249 127.673 79.3612 123.93 81.7025C118.728 84.9516 112.479 86.9758 105.665 87.61C101.54 87.9966 98.1834 87.8489 94.8745 87.1322C93.4241 86.8151 92.1821 86.4546 89.5767 85.5945C86.7497 84.6606 85.7076 84.3435 84.2094 83.9699C82.1294 83.4443 80.1058 83.1055 77.8738 82.9014C77.4699 82.8623 76.6666 82.7798 76.0934 82.7146L75.0512 82.5973H61.9587H48.8662L48.6839 82.6929C48.584 82.7493 48.3799 82.8927 48.2322 83.0187C47.1683 83.9265 46.5908 84.2002 45.5356 84.3131C45.2881 84.3392 42.5784 84.4564 39.5083 84.5737C32.4257 84.8517 27.1062 85.0689 24.0969 85.2036C22.7985 85.2644 21.4307 85.3122 21.0572 85.3122C17.7005 85.3122 14.8909 84.4695 12.9108 82.8666C12.4288 82.4757 11.7036 81.7199 11.3432 81.229C10.1968 79.6696 9.4759 77.7497 9.18062 75.4518C9.10245 74.8611 7.23954 54.1892 6.95729 50.788C6.86175 49.6109 6.91386 49.1418 7.20915 48.6509C7.49575 48.1775 7.87788 47.9994 8.6161 47.9994H9.06337L9.04166 47.856C9.01561 47.6736 5.98458 14.5438 5.98458 14.4396C5.98458 14.3614 5.94115 14.357 4.95542 14.3701C4.29102 14.3787 3.83072 14.3657 3.66137 14.3353C2.68432 14.1442 2.02427 13.358 1.79412 12.1026C1.75938 11.9115 1.60305 10.3217 1.44238 8.57984C1.13841 5.17869 1.12104 4.77038 1.27302 4.08406C1.55962 2.80266 2.48891 2.21625 4.24326 2.21625H4.85554L4.8512 2.02947C4.8512 1.92956 4.83383 1.70369 4.81646 1.52994L4.78606 1.21719H19.2594H33.7328V5.77813V10.3391H70.9693H108.206V5.75641V1.17375H122.692H137.179L137.148 1.68197Z" fill="#9DAEBB" stroke="#9DAEBB"/>
</svg>
