<svg width="142" height="89" viewBox="0 0 142 89" fill="none" xmlns="http://www.w3.org/2000/svg">
<path d="M33.9679 83.4173L33.9679 78.8347L71.009 78.8347L108.05 78.8347L108.05 83.3956L108.05 87.9566L122.728 87.9566L137.405 87.9566L137.401 87.8393C137.401 87.7698 137.383 87.5613 137.362 87.3702C137.344 87.179 137.331 87.0183 137.34 87.0096C137.344 87.0009 137.661 86.9792 138.039 86.9575C139.116 86.8967 139.733 86.6925 140.232 86.2321C140.718 85.776 140.957 85.1244 140.996 84.1123C141.014 83.5867 140.979 83.0612 140.731 80.3116C140.571 78.5567 140.41 76.9625 140.375 76.7714C140.132 75.5508 139.476 74.7646 138.482 74.504C138.269 74.4518 137.987 74.4345 137.197 74.4301C136.645 74.4301 136.189 74.4128 136.189 74.3954C136.189 74.3302 133.193 41.6305 133.167 41.409L133.141 41.1831L133.588 41.1657C133.957 41.1527 134.083 41.131 134.278 41.0397C134.899 40.753 135.208 40.2057 135.264 39.3066C135.29 38.8548 135.299 38.9938 134.817 33.5728C133.627 20.1333 133.01 13.483 132.911 12.8966C132.533 10.7291 131.855 9.06106 130.765 7.59722C130.444 7.16284 129.615 6.31147 129.154 5.94659C127.595 4.70428 125.546 3.91806 123.075 3.62269C122.285 3.52278 120.374 3.49237 119.145 3.55319C116.587 3.67915 112.388 3.8529 102.774 4.23081C99.4303 4.36112 96.586 4.48275 96.4557 4.49578C95.8 4.56962 95.1183 4.78681 94.6362 5.0735C94.4799 5.16471 94.1456 5.42099 93.8937 5.63818C93.6418 5.85537 93.3509 6.0769 93.2423 6.12903L93.0469 6.22893L80.4321 6.24196C67.37 6.25499 67.3961 6.25499 65.7373 6.07255C65.3074 6.02912 64.6256 5.95962 64.2174 5.92487C62.0549 5.7294 59.9705 5.3819 57.9382 4.88237C56.6833 4.56962 55.3979 4.18302 53.0921 3.42721C49.6919 2.30652 48.3805 1.93296 46.6435 1.58546C43.4128 0.933899 39.878 0.829648 35.7918 1.25534C29.8904 1.87649 24.4493 3.51843 19.7421 6.10296C15.8122 8.25746 12.4598 11.0983 10.3798 14.026C9.04229 15.9111 7.71784 18.7476 7.17938 20.8717C6.82764 22.2487 6.75381 23.1478 6.82763 25.0591C6.89277 26.6141 6.86672 32.0178 6.77987 35.8967C6.70605 39.211 6.70605 39.4977 6.79724 39.8278C6.91014 40.2535 7.0795 40.5489 7.33571 40.7834C7.63099 41.0528 7.95233 41.1787 8.43869 41.2048L8.81648 41.2308L8.79477 41.3872C8.78174 41.5306 5.91572 74.3215 5.91572 74.3693C5.91572 74.3823 5.51187 74.4041 5.01249 74.4171C3.99202 74.4431 3.61422 74.5127 3.04971 74.782C2.47216 75.0556 2.00752 75.616 1.77737 76.3153C1.62972 76.754 1.56459 77.3013 1.28668 80.3333C0.978361 83.7127 0.94362 84.399 1.06521 84.8725C1.19982 85.3807 1.45168 85.8281 1.78605 86.1452C2.35925 86.6838 3.07575 86.9445 4.10491 86.9879L4.70417 87.014L4.68246 87.1703C4.66943 87.2572 4.64772 87.4787 4.6347 87.6655L4.6043 88L19.2861 88L33.9679 88L33.9679 83.4173ZM4.85181 87.318L4.88221 86.8055L4.2569 86.8011C3.17564 86.7968 2.45913 86.5492 1.89462 85.9845C1.38221 85.4676 1.18678 84.9333 1.18244 84.0428C1.18244 83.4912 1.72091 77.4534 1.81645 76.9321C2.13344 75.199 3.18432 74.5213 5.44239 74.5865C5.99822 74.5995 6.08941 74.5952 6.08941 74.5387C6.08941 74.504 6.74513 66.9849 7.54414 57.8326C8.34315 48.6804 8.99885 41.157 8.99885 41.1092C8.99885 41.0267 8.96846 41.0223 8.55159 41.0223C8.16077 41.018 8.07826 41.005 7.83943 40.8964C7.3965 40.6922 7.12727 40.3447 6.97963 39.78C6.89278 39.4586 6.88843 39.0155 6.95791 36.4614C7.02739 33.777 7.06213 25.9669 7.01002 24.8202C6.90146 22.5527 7.19674 20.9238 8.13037 18.6086C8.39092 17.9614 9.16822 16.3585 9.56338 15.6549C11.2352 12.675 14.327 9.63877 18.0702 7.29749C23.2725 4.04836 29.5213 2.02418 36.3346 1.38999C40.4599 1.0034 43.8166 1.15109 47.1255 1.8678C48.5759 2.1849 49.8179 2.54543 52.4233 3.40549C55.2503 4.3394 56.2924 4.65649 57.7906 5.03005C59.8706 5.55565 61.8942 5.89446 64.1262 6.09862C64.5301 6.13771 65.3334 6.22024 65.9066 6.2854L66.9488 6.40268L80.0413 6.40268L93.1338 6.40268L93.3161 6.30712C93.416 6.25065 93.6201 6.10731 93.7678 5.98134C94.8317 5.07349 95.4092 4.79984 96.4644 4.6869C96.7119 4.66084 99.4216 4.54356 102.492 4.42628C109.574 4.14828 114.894 3.93109 117.903 3.79644C119.201 3.73562 120.569 3.68784 120.943 3.68784C124.3 3.68784 127.109 4.53053 129.089 6.13337C129.571 6.52431 130.296 7.28012 130.657 7.77097C131.803 9.33037 132.524 11.2503 132.819 13.5482C132.898 14.1389 134.76 34.8108 135.043 38.212C135.138 39.3891 135.086 39.8582 134.791 40.3491C134.504 40.8225 134.122 41.0006 133.384 41.0006L132.937 41.0006L132.958 41.144C132.984 41.3264 136.015 74.4562 136.015 74.5604C136.015 74.6386 136.059 74.643 137.045 74.6299C137.709 74.6213 138.169 74.6343 138.339 74.6647C139.316 74.8558 139.976 75.642 140.206 76.8974C140.241 77.0885 140.397 78.6783 140.558 80.4202C140.862 83.8213 140.879 84.2296 140.727 84.9159C140.44 86.1973 139.511 86.7837 137.757 86.7837L137.144 86.7837L137.149 86.9705C137.149 87.0704 137.166 87.2963 137.184 87.4701L137.214 87.7828L122.741 87.7828L108.267 87.7828L108.267 83.2219L108.267 78.6609L71.0307 78.6609L33.7942 78.6609L33.7942 83.2436L33.7942 87.8262L19.3078 87.8262L4.82142 87.8262L4.85181 87.318Z" fill="#9DAEBB" stroke="#9DAEBB"/>
</svg>
