<svg width="96" height="96" viewBox="0 0 96 96" fill="none"
    xmlns="http://www.w3.org/2000/svg">
    <g clip-path="url(#clip0_1_8)">
        <path d="M24 56C21.8 56 20 57.8 20 60V72C20 74.2 21.8 76 24 76H36C38.2 76 40 74.2 40 72C40 69.8 38.2 68 36 68H28V60C28 57.8 26.2 56 24 56ZM24 40C26.2 40 28 38.2 28 36V28H36C38.2 28 40 26.2 40 24C40 21.8 38.2 20 36 20H24C21.8 20 20 21.8 20 24V36C20 38.2 21.8 40 24 40ZM68 68H60C57.8 68 56 69.8 56 72C56 74.2 57.8 76 60 76H72C74.2 76 76 74.2 76 72V60C76 57.8 74.2 56 72 56C69.8 56 68 57.8 68 60V68ZM56 24C56 26.2 57.8 28 60 28H68V36C68 38.2 69.8 40 72 40C74.2 40 76 38.2 76 36V24C76 21.8 74.2 20 72 20H60C57.8 20 56 21.8 56 24Z" fill="#bcbcbd"/>
    </g>
    <defs>
        <clipPath id="clip0_1_8">
            <rect width="96" height="96" fill="white"/>
        </clipPath>
    </defs>
</svg>
