<svg width="40" height="40" viewBox="0 0 40 40" fill="none" xmlns="http://www.w3.org/2000/svg">
<path d="M7.8 21.404V18.744H16.368V21.404H7.8ZM15.248 30V10.12H18.496V30H15.248ZM6.68 30V10.12H9.928V30H6.68ZM29.6645 24.568V15.552H32.9125V24.568H29.6645ZM24.5405 30V27.34H27.0325V30H24.5405ZM24.5405 12.752V10.12H27.0325V12.752H24.5405ZM24.5405 12.752V10.12H27.0325V12.752H24.5405ZM32.9125 15.58H29.6645C29.6645 14.684 29.4312 13.9933 28.9645 13.508C28.4978 13.004 27.8538 12.752 27.0325 12.752V10.12C28.1898 10.12 29.2072 10.3533 30.0845 10.82C30.9618 11.2867 31.6525 11.9307 32.1565 12.752C32.6605 13.5733 32.9125 14.516 32.9125 15.58ZM32.9125 24.54C32.9125 25.604 32.6605 26.5467 32.1565 27.368C31.6525 28.1893 30.9618 28.8333 30.0845 29.3C29.2072 29.7667 28.1898 30 27.0325 30V27.34C27.8538 27.34 28.4978 27.0973 28.9645 26.612C29.4312 26.108 29.6645 25.4173 29.6645 24.54H32.9125ZM21.9925 30V10.12H25.2405V30H21.9925Z" fill="#BCBCBD"/>
</svg>
