<svg width="39" height="40" viewBox="0 0 39 40" fill="none" xmlns="http://www.w3.org/2000/svg">
<path d="M14.632 25.408C14.632 24.7547 14.436 24.1853 14.044 23.7C13.652 23.196 13.1387 22.72 12.504 22.272C11.888 21.824 11.2253 21.376 10.516 20.928C9.80667 20.4613 9.13467 19.948 8.5 19.388C7.884 18.8093 7.37067 18.1373 6.96 17.372C6.568 16.6067 6.372 15.7107 6.372 14.684H9.62C9.62 15.3187 9.816 15.888 10.208 16.392C10.6187 16.896 11.132 17.372 11.748 17.82C12.3827 18.268 13.0547 18.7253 13.764 19.192C14.4733 19.64 15.136 20.1533 15.752 20.732C16.3867 21.292 16.9 21.9547 17.292 22.72C17.684 23.4667 17.88 24.3627 17.88 25.408H14.632ZM6.372 14.712C6.372 13.704 6.624 12.8267 7.128 12.08C7.632 11.3147 8.32267 10.7267 9.2 10.316C10.096 9.88667 11.1133 9.672 12.252 9.672V12.332C11.4307 12.332 10.7867 12.5467 10.32 12.976C9.85333 13.3867 9.62 13.9653 9.62 14.712H6.372ZM17.88 25.38C17.88 26.4067 17.628 27.2933 17.124 28.04C16.62 28.7867 15.9293 29.3747 15.052 29.804C14.1747 30.2147 13.1573 30.42 12 30.42V27.788C12.8213 27.788 13.4653 27.5733 13.932 27.144C14.3987 26.7147 14.632 26.1267 14.632 25.38H17.88ZM14.632 14.684C14.5387 13.9 14.268 13.312 13.82 12.92C13.3907 12.528 12.868 12.332 12.252 12.332V9.672C13.204 9.672 14.0533 9.85867 14.8 10.232C15.5467 10.6053 16.1533 11.128 16.62 11.8C17.1053 12.4533 17.4133 13.228 17.544 14.124L14.632 14.684ZM8.92 24.176C9.01333 25.296 9.33067 26.1827 9.872 26.836C10.4133 27.4707 11.1227 27.788 12 27.788V30.42C10.3013 30.42 8.92 29.916 7.856 28.908C6.81067 27.9 6.18533 26.5 5.98 24.708L8.92 24.176ZM28.3793 24.568V15.552H31.6273V24.568H28.3793ZM23.2553 30V27.34H25.7473V30H23.2553ZM23.2553 12.752V10.12H25.7473V12.752H23.2553ZM23.2553 12.752V10.12H25.7473V12.752H23.2553ZM31.6273 15.58H28.3793C28.3793 14.684 28.146 13.9933 27.6793 13.508C27.2127 13.004 26.5687 12.752 25.7473 12.752V10.12C26.9047 10.12 27.922 10.3533 28.7993 10.82C29.6767 11.2867 30.3673 11.9307 30.8713 12.752C31.3753 13.5733 31.6273 14.516 31.6273 15.58ZM31.6273 24.54C31.6273 25.604 31.3753 26.5467 30.8713 27.368C30.3673 28.1893 29.6767 28.8333 28.7993 29.3C27.922 29.7667 26.9047 30 25.7473 30V27.34C26.5687 27.34 27.2127 27.0973 27.6793 26.612C28.146 26.108 28.3793 25.4173 28.3793 24.54H31.6273ZM20.7073 30V10.12H23.9553V30H20.7073Z" fill="#BCBCBD"/>
</svg>
