<svg width="96" height="96" viewBox="0 0 96 96" fill="none"
    xmlns="http://www.w3.org/2000/svg">
    <g clip-path="url(#clip0_1_5)">
        <path d="M62 56H58.84L57.72 54.92C62.52 49.32 65 41.68 63.64 33.56C61.76 22.44 52.48 13.56 41.28 12.2C24.36 10.12 10.12 24.36 12.2 41.28C13.56 52.48 22.44 61.76 33.56 63.64C41.68 65 49.32 62.52 54.92 57.72L56 58.84V62L73.04 79C74.68 80.64 77.32 80.64 78.96 79L79 78.96C80.64 77.32 80.64 74.68 79 73.04L62 56ZM38 56C28.04 56 20 47.96 20 38C20 28.04 28.04 20 38 20C47.96 20 56 28.04 56 38C56 47.96 47.96 56 38 56ZM30 36H46C47.12 36 48 36.88 48 38C48 39.12 47.12 40 46 40H30C28.88 40 28 39.12 28 38C28 36.88 28.88 36 30 36Z" fill="#bcbcbd"/>
    </g>
    <defs>
        <clipPath id="clip0_1_5">
            <rect width="96" height="96" fill="white"/>
        </clipPath>
    </defs>
</svg>
