<svg width="96" height="96" viewBox="0 0 96 96" fill="none"
    xmlns="http://www.w3.org/2000/svg">
    <g clip-path="url(#clip0_1_11)">
        <path d="M24 64H32V72C32 74.2 33.8 76 36 76C38.2 76 40 74.2 40 72V60C40 57.8 38.2 56 36 56H24C21.8 56 20 57.8 20 60C20 62.2 21.8 64 24 64ZM32 32H24C21.8 32 20 33.8 20 36C20 38.2 21.8 40 24 40H36C38.2 40 40 38.2 40 36V24C40 21.8 38.2 20 36 20C33.8 20 32 21.8 32 24V32ZM60 76C62.2 76 64 74.2 64 72V64H72C74.2 64 76 62.2 76 60C76 57.8 74.2 56 72 56H60C57.8 56 56 57.8 56 60V72C56 74.2 57.8 76 60 76ZM64 32V24C64 21.8 62.2 20 60 20C57.8 20 56 21.8 56 24V36C56 38.2 57.8 40 60 40H72C74.2 40 76 38.2 76 36C76 33.8 74.2 32 72 32H64Z" fill="#bcbcbd"/>
    </g>
    <defs>
        <clipPath id="clip0_1_11">
            <rect width="96" height="96" fill="white"/>
        </clipPath>
    </defs>
</svg>
