<svg width="96" height="96" viewBox="0 0 96 96" fill="none" xmlns="http://www.w3.org/2000/svg">
<path d="M24.2 18.36L22.64 16.8C21.08 15.24 18.56 15.28 17.04 16.8L17 16.84C15.44 18.4 15.44 20.92 17 22.44L18.56 24C20.12 25.56 22.6 25.56 24.16 24L24.2 23.96C25.76 22.44 25.76 19.88 24.2 18.36ZM12.04 43.8H7.96C5.76 43.8 4 45.56 4 47.76V47.8C4 50 5.76 51.76 7.96 51.76H12C14.24 51.8 16 50.04 16 47.84V47.8C16 45.56 14.24 43.8 12.04 43.8ZM48.04 4H48C45.76 4 44 5.76 44 7.96V11.8C44 14 45.76 15.76 47.96 15.76H48C50.24 15.8 52 14.04 52 11.84V7.96C52 5.76 50.24 4 48.04 4ZM79 16.84C77.44 15.28 74.92 15.28 73.36 16.8L71.8 18.36C70.24 19.92 70.24 22.44 71.8 23.96L71.84 24C73.4 25.56 75.92 25.56 77.44 24L79 22.44C80.56 20.88 80.56 18.4 79 16.84ZM71.76 77.24L73.32 78.8C74.88 80.36 77.4 80.36 78.96 78.8C80.52 77.24 80.52 74.72 78.96 73.16L77.4 71.6C75.84 70.04 73.32 70.08 71.8 71.6C70.2 73.2 70.2 75.68 71.76 77.24ZM80 47.76V47.8C80 50 81.76 51.76 83.96 51.76H88C90.2 51.76 91.96 50 91.96 47.8V47.76C91.96 45.56 90.2 43.8 88 43.8H83.96C81.76 43.8 80 45.56 80 47.76ZM48 23.8C34.76 23.8 24 34.56 24 47.8C24 61.04 34.76 71.8 48 71.8C61.24 71.8 72 61.04 72 47.8C72 34.56 61.24 23.8 48 23.8ZM47.96 91.6H48C50.2 91.6 51.96 89.84 51.96 87.64V83.8C51.96 81.6 50.2 79.84 48 79.84H47.96C45.76 79.84 44 81.6 44 83.8V87.64C44 89.84 45.76 91.6 47.96 91.6ZM17 78.76C18.56 80.32 21.08 80.32 22.64 78.76L24.2 77.2C25.76 75.64 25.72 73.12 24.2 71.6L24.16 71.56C22.6 70 20.08 70 18.52 71.56L16.96 73.12C15.44 74.72 15.44 77.2 17 78.76Z" fill="#bcbcbd"/>
</svg>
